PathFileType	4	(X/Y/Z)	/Users/itak/Documents/Research/Walk-IL/dataset/trc/00486_00167.trc
DataRate	CameraRate	NumFrames	NumMarkers	Units	OrigDataRate	OrigDataStartFrame	OrigNumFrames
100.000000	100.000000	4	54	mm	100.000000	186	497
Frame#	Time	RPSI			LPSI			L3			STRN			T10			C7			CLAV			RBAK			LBAK			LSHO			LUPA			LAEL			LAOL			LWTS			LWPS			LFRA			LIFD			LHPS			RSHO			RUPA			RAEL			RAOL			RWTS			RWPS			RFRA			RIFD			RHTS			RHPS			RBHD			LFHD			RFHD			LBHD			LHIP			RHIP			RASI			LASI			LKNE			LTHI			LANK			LTIP			LTOE			LMT1			LMT5			LHEE			RKNE			RTHI			RANK			RTIP			RTOE			RMT1			RMT5			RHEE			LHTS			*53			
		X1	Y1	Z1	X2	Y2	Z2	X3	Y3	Z3	X4	Y4	Z4	X5	Y5	Z5	X6	Y6	Z6	X7	Y7	Z7	X8	Y8	Z8	X9	Y9	Z9	X10	Y10	Z10	X11	Y11	Z11	X12	Y12	Z12	X13	Y13	Z13	X14	Y14	Z14	X15	Y15	Z15	X16	Y16	Z16	X17	Y17	Z17	X18	Y18	Z18	X19	Y19	Z19	X20	Y20	Z20	X21	Y21	Z21	X22	Y22	Z22	X23	Y23	Z23	X24	Y24	Z24	X25	Y25	Z25	X26	Y26	Z26	X27	Y27	Z27	X28	Y28	Z28	X29	Y29	Z29	X30	Y30	Z30	X31	Y31	Z31	X32	Y32	Z32	X33	Y33	Z33	X34	Y34	Z34	X35	Y35	Z35	X36	Y36	Z36	X37	Y37	Z37	X38	Y38	Z38	X39	Y39	Z39	X40	Y40	Z40	X41	Y41	Z41	X42	Y42	Z42	X43	Y43	Z43	X44	Y44	Z44	X45	Y45	Z45	X46	Y46	Z46	X47	Y47	Z47	X48	Y48	Z48	X49	Y49	Z49	X50	Y50	Z50	X51	Y51	Z51	X52	Y52	Z52	X53	Y53	Z53	X54	Y54	Z54	

187	1.86	-770.4873657226562	911.0987548828125	222.4134063720703	-700.4572143554688	923.5244140625	99.09867858886719	-726.2528076171875	1016.079956054688	169.9061431884766	-482.9443969726562	1209.7197265625	302.7275390625	-730.8133544921875	1140.637451171875	156.6988525390625	-676.0132446289062	1410.351440429688	205.2469329833984	-511.9162902832031	1322.77978515625	282.9736328125	-778.4475708007812	1290.566040039062	250.3130340576172	-655.5249633789062	1363.019287109375	99.13480377197266	-528.1196899414062	1381.426513671875	84.94361114501953	-476.6607360839844	1266.613647460938	-2.251785039901733	-408.7333984375	1062.295654296875	-20.25071907043457	-506.4947509765625	1027.681762695312	-14.04886531829834	-327.908203125	891.3705444335938	93.58152008056641	-322.3733215332031	865.2030029296875	24.27102851867676	-366.3538208007812	983.7450561523438	-3.157517910003662	-277.2353820800781	739.86181640625	119.1686630249023	-293.5200805664062	795.0187377929688	43.28067016601562	-698.0724487304688	1375.429077148438	376.5448913574219	-756.5501098632812	1316.463134765625	428.5097961425781	-815.6007690429688	1035.6884765625	473.1290588378906	-834.6140747070312	1022.106140136719	409.10888671875	-726.202392578125	819.8976440429688	491.0028686523438	-815.7615966796875	814.103271484375	501.0479736328125	-824.7615356445312	977.9323120117188	482.7816467285156	-746.0944213867188	664.26611328125	494.0480041503906	-731.0293579101562	721.9452514648438	505.8123779296875	-809.3040771484375	724.8868408203125	504.9139099121094	-587.9330444335938	1605.271118164062	345.9051818847656	-463.7580261230469	1618.501220703125	180.6875	-454.7452087402344	1618.815551757812	310.9793395996094	-616.1755981445312	1609.68408203125	170.5919189453125	-526.9488525390625	828.2715454101562	52.29606628417969	-716.708984375	820.8038940429688	408.6981201171875	-601.815673828125	874.7015991210938	394.0742492675781	-474.3591613769531	859.1570434570312	170.382568359375	-612.5934448242188	413.5957641601562	64.94924926757812	-549.1212768554688	561.8143920898438	74.54317474365234	-847.0609741210938	83.29444885253906	-64.80776214599609	-678.7390747070312	276.6392517089844	16.7804069519043	-712.136474609375	40.53757858276367	128.8962249755859	-786.1497192382812	50.69205856323242	105.5175628662109	-721.59375	46.9404296875	13.18235301971436	-916.6009521484375	108.5513534545898	-37.04411697387695	-553.3335571289062	464.58349609375	471.0462646484375	-650.1657104492188	706.4590454101562	459.0310974121094	-497.5439758300781	33.75226593017578	526.74365234375	-518.7522583007812	330.7582092285156	505.6513366699219	-286.3705444335938	86.64678192138672	556.8035278320312	-331.6871643066406	76.49140930175781	498.9387817382812	-382.4492492675781	51.87005233764648	589.7200317382812	-541.713623046875	25.36426162719727	460.2416687011719	-285.9751586914062	817.3907470703125	111.898307800293	nan	nan	nan	
188	1.87	-761.5508422851562	910.9403076171875	229.3269958496094	-691.7191162109375	922.4103393554688	105.7621307373047	-717.648193359375	1016.143981933594	177.3447113037109	-474.2629699707031	1210.267578125	309.0878295898438	-723.1021728515625	1140.949340820312	164.5609283447266	-668.385009765625	1410.555908203125	213.1415557861328	-503.5904541015625	1323.171997070312	289.2574157714844	-770.2592163085938	1290.62255859375	258.9036254882812	-648.7787475585938	1363.259765625	106.7582015991211	-521.4189453125	1381.760009765625	91.23339080810547	-471.7448425292969	1266.527099609375	3.321328163146973	-405.8329467773438	1061.750854492188	-16.06108093261719	-503.7479858398438	1027.828125	-7.60521125793457	-323.7063293457031	890.2953491210938	95.78669738769531	-320.1706848144531	864.027587890625	26.42296981811523	-363.7242126464844	982.8130493164062	0.06004746630787849	-272.6934204101562	738.8025512695312	120.1304397583008	-290.9897766113281	793.90234375	44.68174743652344	-688.813720703125	1375.132202148438	384.7748107910156	-746.479248046875	1315.7099609375	437.1920471191406	-803.8698120117188	1034.676025390625	481.8050537109375	-823.7132568359375	1021.878540039062	417.7879943847656	-716.8421630859375	817.49658203125	496.3660583496094	-806.5059814453125	813.0590209960938	507.7340393066406	-813.418212890625	977.02587890625	490.91162109375	-739.6459350585938	662.0901489257812	497.9577026367188	-723.1448364257812	719.2848510742188	510.015380859375	-801.5338745117188	723.6951293945312	510.53759765625	-578.4251708984375	1605.722900390625	352.7086181640625	-456.8534545898438	1618.614990234375	185.6136932373047	-445.8724365234375	1619.208984375	315.7211303710938	-609.4042358398438	1609.80419921875	177.8760986328125	-518.2009887695312	827.1185913085938	59.63778305053711	-707.1934814453125	821.7206420898438	415.9895629882812	-592.6851196289062	876.2261352539062	401.4020385742188	-465.6812438964844	859.1651611328125	177.5469055175781	-601.0380859375	411.9843139648438	72.51052856445312	-538.1587524414062	560.7157592773438	82.85940551757812	-844.544189453125	89.73109436035156	-63.01557922363281	-670.8082275390625	277.2505798339844	21.68843078613281	-712.2830810546875	40.43701553344727	128.9321746826172	-785.0590209960938	51.33076095581055	106.2696228027344	-721.16845703125	46.96884155273438	13.76502704620361	-912.7817993164062	117.0891647338867	-34.43030166625977	-541.4130859375	466.4789123535156	478.3179321289062	-640.08984375	707.559814453125	466.24609375	-496.701171875	33.83898162841797	526.7673950195312	-508.7950744628906	330.7667541503906	510.9345397949219	-282.5772705078125	77.71774291992188	556.287841796875	-328.8842468261719	70.34540557861328	498.9908142089844	-380.6279602050781	47.84696197509766	590.392578125	-541.268798828125	26.90106964111328	460.4062805175781	-281.5811157226562	816.2763061523438	112.9252243041992	nan	nan	nan	
189	1.88	-752.578857421875	911.0305786132812	236.2174377441406	-683.06103515625	921.4598999023438	112.3908157348633	-709.1200561523438	1016.617492675781	184.8200378417969	-465.5142211914062	1211.157104492188	315.3508911132812	-715.5108642578125	1141.625	172.3820495605469	-660.7474975585938	1411.039916992188	221.0308990478516	-495.2124328613281	1323.926391601562	295.4905700683594	-762.0181884765625	1291.016479492188	267.5691833496094	-641.9977416992188	1363.833740234375	114.3548202514648	-514.6970825195312	1382.487182617188	97.55116271972656	-466.7649841308594	1266.910034179688	8.930791854858398	-403.137939453125	1061.56884765625	-11.82694149017334	-501.2096557617188	1028.518676757812	-1.050892353057861	-319.9451293945312	889.304443359375	97.73468017578125	-318.5882568359375	862.9928588867188	28.3445987701416	-361.4595642089844	982.1546630859375	3.203521251678467	-268.7650756835938	737.740234375	120.5632629394531	-289.1876525878906	792.884765625	45.71561431884766	-679.404541015625	1375.1943359375	392.9988708496094	-736.1954345703125	1315.363525390625	445.9532775878906	-791.7752075195312	1034.051147460938	490.57275390625	-812.5505981445312	1022.031188964844	426.6259460449219	-707.1671752929688	815.5060424804688	501.7425537109375	-796.7774658203125	812.4093627929688	514.6185913085938	-801.6856079101562	976.5054931640625	499.1731567382812	-732.8479614257812	660.4024047851562	501.92919921875	-714.8935546875	717.0875244140625	514.2691650390625	-793.2828979492188	722.9357299804688	516.3046264648438	-568.846435546875	1606.3984375	359.463134765625	-449.9032287597656	1618.945678710938	190.5518951416016	-436.9600524902344	1619.801635742188	320.4533996582031	-602.5464477539062	1610.161865234375	185.1517486572266	-509.4917602539062	826.1287841796875	66.99412536621094	-697.6385498046875	822.9456787109375	423.2444152832031	-583.5300903320312	877.9988403320312	408.5876770019531	-457.0274353027344	859.5054931640625	184.6045074462891	-588.2504272460938	410.3528442382812	80.42259979248047	-526.337890625	559.71826171875	91.40623474121094	-841.53369140625	97.05663299560547	-60.4347038269043	-661.9236450195312	278.2191467285156	26.95948791503906	-712.4683227539062	40.31206512451172	128.8648834228516	-783.7073974609375	52.05785369873047	107.2682800292969	-720.7158203125	47.08652496337891	14.45906543731689	-908.0833129882812	126.7052459716797	-30.66092872619629	-530.249267578125	468.3782653808594	485.6784973144531	-630.0635986328125	708.9171752929688	473.4937438964844	-496.0689697265625	34.04998016357422	526.8392333984375	-499.8770141601562	330.7848815917969	516.3174438476562	-279.668212890625	69.98828125	555.9194946289062	-326.7645263671875	65.33464813232422	499.2623291015625	-379.43359375	44.74568176269531	591.3806762695312	-540.8926391601562	28.2427978515625	460.6405334472656	-277.6946105957031	815.1925048828125	113.5264205932617	nan	nan	nan	
190	1.89	-743.58740234375	911.3120727539062	243.1546020507812	-674.5068359375	920.6674194335938	119.0449295043945	-700.6892700195312	1017.419006347656	192.3510437011719	-456.7207336425781	1212.323486328125	321.4593811035156	-708.0455322265625	1142.54736328125	180.1506195068359	-653.1280517578125	1411.735107421875	228.8884735107422	-486.799560546875	1324.984252929688	301.6336975097656	-753.7339477539062	1291.671997070312	276.3155822753906	-635.2272338867188	1364.6640625	121.9050521850586	-508.0209045410156	1383.547241210938	103.8725051879883	-461.7189636230469	1267.740844726562	14.55161571502686	-400.5865478515625	1061.738403320312	-7.555560111999512	-498.7903137207031	1029.719116210938	5.554644584655762	-316.6159973144531	888.3817138671875	99.46846008300781	-317.5603332519531	862.1013793945312	30.08332061767578	-359.4937744140625	981.7738037109375	6.292803764343262	-265.5295104980469	736.6289672851562	120.5313491821289	-288.1018981933594	791.9452514648438	46.44585037231445	-669.8468627929688	1375.57568359375	401.1890563964844	-725.6954956054688	1315.40625	454.7810363769531	-779.3468017578125	1033.797119140625	499.4127502441406	-801.164306640625	1022.524108886719	435.6219787597656	-697.1882934570312	813.9110107421875	507.1368103027344	-786.5278930664062	812.1146240234375	521.7347412109375	-789.5851440429688	976.349853515625	507.5755310058594	-725.6290283203125	659.1891479492188	505.9610290527344	-706.2252807617188	715.3469848632812	518.5743408203125	-784.49658203125	722.5752563476562	522.2506103515625	-559.233642578125	1607.23095703125	366.1457824707031	-442.9246215820312	1619.456176757812	195.4809265136719	-428.0303039550781	1620.544799804688	325.1579284667969	-595.6268310546875	1610.698486328125	192.38671875	-500.8125305175781	825.26806640625	74.35376739501953	-688.0426635742188	824.3748779296875	430.5092468261719	-574.3233642578125	879.8812255859375	415.6293640136719	-448.3937072753906	860.1166381835938	191.5468597412109	-574.2005004882812	408.7196044921875	88.59818267822266	-513.6189575195312	558.806640625	100.0772018432617	-837.8683471679688	105.2671966552734	-56.97152328491211	-652.0270385742188	279.5827331542969	32.56878280639648	-712.6349487304688	40.15999221801758	128.6626739501953	-782.0283203125	52.90568923950195	108.5362167358398	-720.1383666992188	47.36051940917969	15.28962802886963	-902.311279296875	137.3353881835938	-25.61278343200684	-519.9622192382812	470.0603637695312	492.9352722167969	-620.0610961914062	710.4419555664062	480.7743835449219	-495.5530090332031	34.34863662719727	526.9387817382812	-491.9902648925781	330.66943359375	521.6123657226562	-277.4484252929688	63.46856689453125	555.63720703125	-325.1609191894531	61.42916488647461	499.6701354980469	-378.7029113769531	42.50422286987305	592.5484008789062	-540.53076171875	29.36714172363281	460.9146118164062	-274.355224609375	814.0963745117188	113.7783355712891	nan	nan	nan	
